<?xml version="1.0" encoding="utf-8" standalone="no"?>
<!DOCTYPE svg PUBLIC "-//W3C//DTD SVG 1.1//EN"
  "http://www.w3.org/Graphics/SVG/1.1/DTD/svg11.dtd">
<svg xmlns:xlink="http://www.w3.org/1999/xlink" width="540pt" height="288pt" viewBox="0 0 540 288" xmlns="http://www.w3.org/2000/svg" version="1.1">
 <metadata>
  <rdf:RDF xmlns:dc="http://purl.org/dc/elements/1.1/" xmlns:cc="http://creativecommons.org/ns#" xmlns:rdf="http://www.w3.org/1999/02/22-rdf-syntax-ns#">
   <cc:Work>
    <dc:type rdf:resource="http://purl.org/dc/dcmitype/StillImage"/>
    <dc:date>2025-11-20T01:16:22.763079</dc:date>
    <dc:format>image/svg+xml</dc:format>
    <dc:creator>
     <cc:Agent>
      <dc:title>Matplotlib v3.6.3, https://matplotlib.org/</dc:title>
     </cc:Agent>
    </dc:creator>
   </cc:Work>
  </rdf:RDF>
 </metadata>
 <defs>
  <style type="text/css">*{stroke-linejoin: round; stroke-linecap: butt}</style>
 </defs>
 <g id="figure_1">
  <g id="patch_1">
   <path d="M 0 288 
L 540 288 
L 540 0 
L 0 0 
z
" style="fill: #ffffff"/>
  </g>
  <g id="axes_1">
   <g id="patch_2">
    <path d="M 47.64 263.26 
L 529.2 263.26 
L 529.2 27.6 
L 47.64 27.6 
z
" style="fill: #ffffff"/>
   </g>
   <g id="matplotlib.axis_1">
    <g id="xtick_1">
     <g id="line2d_1">
      <path d="M 142.492727 263.26 
L 142.492727 27.6 
" clip-path="url(#pb4ab39f56e)" style="fill: none; stroke-dasharray: 2.22,0.96; stroke-dashoffset: 0; stroke: #b0b0b0; stroke-opacity: 0.7; stroke-width: 0.6"/>
     </g>
     <g id="line2d_2">
      <defs>
       <path id="m11feb750f5" d="M 0 0 
L 0 -3.5 
" style="stroke: #1a1a1a; stroke-width: 0.8"/>
      </defs>
      <g>
       <use xlink:href="#m11feb750f5" x="142.492727" y="263.26" style="fill: #1a1a1a; stroke: #1a1a1a; stroke-width: 0.8"/>
      </g>
     </g>
     <g id="text_1">
      <!-- REINFORCE-Tabular -->
      <g style="fill: #1a1a1a" transform="translate(89.66179 275.118281) scale(0.11 -0.11)">
       <defs>
        <path id="DejaVuSans-52" d="M 2841 2188 
Q 3044 2119 3236 1894 
Q 3428 1669 3622 1275 
L 4263 0 
L 3584 0 
L 2988 1197 
Q 2756 1666 2539 1819 
Q 2322 1972 1947 1972 
L 1259 1972 
L 1259 0 
L 628 0 
L 628 4666 
L 2053 4666 
Q 2853 4666 3247 4331 
Q 3641 3997 3641 3322 
Q 3641 2881 3436 2590 
Q 3231 2300 2841 2188 
z
M 1259 4147 
L 1259 2491 
L 2053 2491 
Q 2509 2491 2742 2702 
Q 2975 2913 2975 3322 
Q 2975 3731 2742 3939 
Q 2509 4147 2053 4147 
L 1259 4147 
z
" transform="scale(0.015625)"/>
        <path id="DejaVuSans-45" d="M 628 4666 
L 3578 4666 
L 3578 4134 
L 1259 4134 
L 1259 2753 
L 3481 2753 
L 3481 2222 
L 1259 2222 
L 1259 531 
L 3634 531 
L 3634 0 
L 628 0 
L 628 4666 
z
" transform="scale(0.015625)"/>
        <path id="DejaVuSans-49" d="M 628 4666 
L 1259 4666 
L 1259 0 
L 628 0 
L 628 4666 
z
" transform="scale(0.015625)"/>
        <path id="DejaVuSans-4e" d="M 628 4666 
L 1478 4666 
L 3547 763 
L 3547 4666 
L 4159 4666 
L 4159 0 
L 3309 0 
L 1241 3903 
L 1241 0 
L 628 0 
L 628 4666 
z
" transform="scale(0.015625)"/>
        <path id="DejaVuSans-46" d="M 628 4666 
L 3309 4666 
L 3309 4134 
L 1259 4134 
L 1259 2759 
L 3109 2759 
L 3109 2228 
L 1259 2228 
L 1259 0 
L 628 0 
L 628 4666 
z
" transform="scale(0.015625)"/>
        <path id="DejaVuSans-4f" d="M 2522 4238 
Q 1834 4238 1429 3725 
Q 1025 3213 1025 2328 
Q 1025 1447 1429 934 
Q 1834 422 2522 422 
Q 3209 422 3611 934 
Q 4013 1447 4013 2328 
Q 4013 3213 3611 3725 
Q 3209 4238 2522 4238 
z
M 2522 4750 
Q 3503 4750 4090 4092 
Q 4678 3434 4678 2328 
Q 4678 1225 4090 567 
Q 3503 -91 2522 -91 
Q 1538 -91 948 565 
Q 359 1222 359 2328 
Q 359 3434 948 4092 
Q 1538 4750 2522 4750 
z
" transform="scale(0.015625)"/>
        <path id="DejaVuSans-43" d="M 4122 4306 
L 4122 3641 
Q 3803 3938 3442 4084 
Q 3081 4231 2675 4231 
Q 1875 4231 1450 3742 
Q 1025 3253 1025 2328 
Q 1025 1406 1450 917 
Q 1875 428 2675 428 
Q 3081 428 3442 575 
Q 3803 722 4122 1019 
L 4122 359 
Q 3791 134 3420 21 
Q 3050 -91 2638 -91 
Q 1578 -91 968 557 
Q 359 1206 359 2328 
Q 359 3453 968 4101 
Q 1578 4750 2638 4750 
Q 3056 4750 3426 4639 
Q 3797 4528 4122 4306 
z
" transform="scale(0.015625)"/>
        <path id="DejaVuSans-2d" d="M 313 2009 
L 1997 2009 
L 1997 1497 
L 313 1497 
L 313 2009 
z
" transform="scale(0.015625)"/>
        <path id="DejaVuSans-54" d="M -19 4666 
L 3928 4666 
L 3928 4134 
L 2272 4134 
L 2272 0 
L 1638 0 
L 1638 4134 
L -19 4134 
L -19 4666 
z
" transform="scale(0.015625)"/>
        <path id="DejaVuSans-61" d="M 2194 1759 
Q 1497 1759 1228 1600 
Q 959 1441 959 1056 
Q 959 750 1161 570 
Q 1363 391 1709 391 
Q 2188 391 2477 730 
Q 2766 1069 2766 1631 
L 2766 1759 
L 2194 1759 
z
M 3341 1997 
L 3341 0 
L 2766 0 
L 2766 531 
Q 2569 213 2275 61 
Q 1981 -91 1556 -91 
Q 1019 -91 701 211 
Q 384 513 384 1019 
Q 384 1609 779 1909 
Q 1175 2209 1959 2209 
L 2766 2209 
L 2766 2266 
Q 2766 2663 2505 2880 
Q 2244 3097 1772 3097 
Q 1472 3097 1187 3025 
Q 903 2953 641 2809 
L 641 3341 
Q 956 3463 1253 3523 
Q 1550 3584 1831 3584 
Q 2591 3584 2966 3190 
Q 3341 2797 3341 1997 
z
" transform="scale(0.015625)"/>
        <path id="DejaVuSans-62" d="M 3116 1747 
Q 3116 2381 2855 2742 
Q 2594 3103 2138 3103 
Q 1681 3103 1420 2742 
Q 1159 2381 1159 1747 
Q 1159 1113 1420 752 
Q 1681 391 2138 391 
Q 2594 391 2855 752 
Q 3116 1113 3116 1747 
z
M 1159 2969 
Q 1341 3281 1617 3432 
Q 1894 3584 2278 3584 
Q 2916 3584 3314 3078 
Q 3713 2572 3713 1747 
Q 3713 922 3314 415 
Q 2916 -91 2278 -91 
Q 1894 -91 1617 61 
Q 1341 213 1159 525 
L 1159 0 
L 581 0 
L 581 4863 
L 1159 4863 
L 1159 2969 
z
" transform="scale(0.015625)"/>
        <path id="DejaVuSans-75" d="M 544 1381 
L 544 3500 
L 1119 3500 
L 1119 1403 
Q 1119 906 1312 657 
Q 1506 409 1894 409 
Q 2359 409 2629 706 
Q 2900 1003 2900 1516 
L 2900 3500 
L 3475 3500 
L 3475 0 
L 2900 0 
L 2900 538 
Q 2691 219 2414 64 
Q 2138 -91 1772 -91 
Q 1169 -91 856 284 
Q 544 659 544 1381 
z
M 1991 3584 
L 1991 3584 
z
" transform="scale(0.015625)"/>
        <path id="DejaVuSans-6c" d="M 603 4863 
L 1178 4863 
L 1178 0 
L 603 0 
L 603 4863 
z
" transform="scale(0.015625)"/>
        <path id="DejaVuSans-72" d="M 2631 2963 
Q 2534 3019 2420 3045 
Q 2306 3072 2169 3072 
Q 1681 3072 1420 2755 
Q 1159 2438 1159 1844 
L 1159 0 
L 581 0 
L 581 3500 
L 1159 3500 
L 1159 2956 
Q 1341 3275 1631 3429 
Q 1922 3584 2338 3584 
Q 2397 3584 2469 3576 
Q 2541 3569 2628 3553 
L 2631 2963 
z
" transform="scale(0.015625)"/>
       </defs>
       <use xlink:href="#DejaVuSans-52"/>
       <use xlink:href="#DejaVuSans-45" x="69.482422"/>
       <use xlink:href="#DejaVuSans-49" x="132.666016"/>
       <use xlink:href="#DejaVuSans-4e" x="162.158203"/>
       <use xlink:href="#DejaVuSans-46" x="236.962891"/>
       <use xlink:href="#DejaVuSans-4f" x="294.482422"/>
       <use xlink:href="#DejaVuSans-52" x="373.193359"/>
       <use xlink:href="#DejaVuSans-43" x="437.675781"/>
       <use xlink:href="#DejaVuSans-45" x="507.5"/>
       <use xlink:href="#DejaVuSans-2d" x="570.683594"/>
       <use xlink:href="#DejaVuSans-54" x="597.642578"/>
       <use xlink:href="#DejaVuSans-61" x="642.226562"/>
       <use xlink:href="#DejaVuSans-62" x="703.505859"/>
       <use xlink:href="#DejaVuSans-75" x="766.982422"/>
       <use xlink:href="#DejaVuSans-6c" x="830.361328"/>
       <use xlink:href="#DejaVuSans-61" x="858.144531"/>
       <use xlink:href="#DejaVuSans-72" x="919.423828"/>
      </g>
     </g>
    </g>
    <g id="xtick_2">
     <g id="line2d_3">
      <path d="M 288.42 263.26 
L 288.42 27.6 
" clip-path="url(#pb4ab39f56e)" style="fill: none; stroke-dasharray: 2.22,0.96; stroke-dashoffset: 0; stroke: #b0b0b0; stroke-opacity: 0.7; stroke-width: 0.6"/>
     </g>
     <g id="line2d_4">
      <g>
       <use xlink:href="#m11feb750f5" x="288.42" y="263.26" style="fill: #1a1a1a; stroke: #1a1a1a; stroke-width: 0.8"/>
      </g>
     </g>
     <g id="text_2">
      <!-- REINFORCE-Neural -->
      <g style="fill: #1a1a1a" transform="translate(236.902187 275.118281) scale(0.11 -0.11)">
       <defs>
        <path id="DejaVuSans-65" d="M 3597 1894 
L 3597 1613 
L 953 1613 
Q 991 1019 1311 708 
Q 1631 397 2203 397 
Q 2534 397 2845 478 
Q 3156 559 3463 722 
L 3463 178 
Q 3153 47 2828 -22 
Q 2503 -91 2169 -91 
Q 1331 -91 842 396 
Q 353 884 353 1716 
Q 353 2575 817 3079 
Q 1281 3584 2069 3584 
Q 2775 3584 3186 3129 
Q 3597 2675 3597 1894 
z
M 3022 2063 
Q 3016 2534 2758 2815 
Q 2500 3097 2075 3097 
Q 1594 3097 1305 2825 
Q 1016 2553 972 2059 
L 3022 2063 
z
" transform="scale(0.015625)"/>
       </defs>
       <use xlink:href="#DejaVuSans-52"/>
       <use xlink:href="#DejaVuSans-45" x="69.482422"/>
       <use xlink:href="#DejaVuSans-49" x="132.666016"/>
       <use xlink:href="#DejaVuSans-4e" x="162.158203"/>
       <use xlink:href="#DejaVuSans-46" x="236.962891"/>
       <use xlink:href="#DejaVuSans-4f" x="294.482422"/>
       <use xlink:href="#DejaVuSans-52" x="373.193359"/>
       <use xlink:href="#DejaVuSans-43" x="437.675781"/>
       <use xlink:href="#DejaVuSans-45" x="507.5"/>
       <use xlink:href="#DejaVuSans-2d" x="570.683594"/>
       <use xlink:href="#DejaVuSans-4e" x="606.767578"/>
       <use xlink:href="#DejaVuSans-65" x="681.572266"/>
       <use xlink:href="#DejaVuSans-75" x="743.095703"/>
       <use xlink:href="#DejaVuSans-72" x="806.474609"/>
       <use xlink:href="#DejaVuSans-61" x="847.587891"/>
       <use xlink:href="#DejaVuSans-6c" x="908.867188"/>
      </g>
     </g>
    </g>
    <g id="xtick_3">
     <g id="line2d_5">
      <path d="M 434.347273 263.26 
L 434.347273 27.6 
" clip-path="url(#pb4ab39f56e)" style="fill: none; stroke-dasharray: 2.22,0.96; stroke-dashoffset: 0; stroke: #b0b0b0; stroke-opacity: 0.7; stroke-width: 0.6"/>
     </g>
     <g id="line2d_6">
      <g>
       <use xlink:href="#m11feb750f5" x="434.347273" y="263.26" style="fill: #1a1a1a; stroke: #1a1a1a; stroke-width: 0.8"/>
      </g>
     </g>
     <g id="text_3">
      <!-- Actor-Critic -->
      <g style="fill: #1a1a1a" transform="translate(403.903054 275.118281) scale(0.11 -0.11)">
       <defs>
        <path id="DejaVuSans-41" d="M 2188 4044 
L 1331 1722 
L 3047 1722 
L 2188 4044 
z
M 1831 4666 
L 2547 4666 
L 4325 0 
L 3669 0 
L 3244 1197 
L 1141 1197 
L 716 0 
L 50 0 
L 1831 4666 
z
" transform="scale(0.015625)"/>
        <path id="DejaVuSans-63" d="M 3122 3366 
L 3122 2828 
Q 2878 2963 2633 3030 
Q 2388 3097 2138 3097 
Q 1578 3097 1268 2742 
Q 959 2388 959 1747 
Q 959 1106 1268 751 
Q 1578 397 2138 397 
Q 2388 397 2633 464 
Q 2878 531 3122 666 
L 3122 134 
Q 2881 22 2623 -34 
Q 2366 -91 2075 -91 
Q 1284 -91 818 406 
Q 353 903 353 1747 
Q 353 2603 823 3093 
Q 1294 3584 2113 3584 
Q 2378 3584 2631 3529 
Q 2884 3475 3122 3366 
z
" transform="scale(0.015625)"/>
        <path id="DejaVuSans-74" d="M 1172 4494 
L 1172 3500 
L 2356 3500 
L 2356 3053 
L 1172 3053 
L 1172 1153 
Q 1172 725 1289 603 
Q 1406 481 1766 481 
L 2356 481 
L 2356 0 
L 1766 0 
Q 1100 0 847 248 
Q 594 497 594 1153 
L 594 3053 
L 172 3053 
L 172 3500 
L 594 3500 
L 594 4494 
L 1172 4494 
z
" transform="scale(0.015625)"/>
        <path id="DejaVuSans-6f" d="M 1959 3097 
Q 1497 3097 1228 2736 
Q 959 2375 959 1747 
Q 959 1119 1226 758 
Q 1494 397 1959 397 
Q 2419 397 2687 759 
Q 2956 1122 2956 1747 
Q 2956 2369 2687 2733 
Q 2419 3097 1959 3097 
z
M 1959 3584 
Q 2709 3584 3137 3096 
Q 3566 2609 3566 1747 
Q 3566 888 3137 398 
Q 2709 -91 1959 -91 
Q 1206 -91 779 398 
Q 353 888 353 1747 
Q 353 2609 779 3096 
Q 1206 3584 1959 3584 
z
" transform="scale(0.015625)"/>
        <path id="DejaVuSans-69" d="M 603 3500 
L 1178 3500 
L 1178 0 
L 603 0 
L 603 3500 
z
M 603 4863 
L 1178 4863 
L 1178 4134 
L 603 4134 
L 603 4863 
z
" transform="scale(0.015625)"/>
       </defs>
       <use xlink:href="#DejaVuSans-41"/>
       <use xlink:href="#DejaVuSans-63" x="66.658203"/>
       <use xlink:href="#DejaVuSans-74" x="121.638672"/>
       <use xlink:href="#DejaVuSans-6f" x="160.847656"/>
       <use xlink:href="#DejaVuSans-72" x="222.029297"/>
       <use xlink:href="#DejaVuSans-2d" x="256.767578"/>
       <use xlink:href="#DejaVuSans-43" x="292.851562"/>
       <use xlink:href="#DejaVuSans-72" x="362.675781"/>
       <use xlink:href="#DejaVuSans-69" x="403.789062"/>
       <use xlink:href="#DejaVuSans-74" x="431.572266"/>
       <use xlink:href="#DejaVuSans-69" x="470.78125"/>
       <use xlink:href="#DejaVuSans-63" x="498.564453"/>
      </g>
     </g>
    </g>
   </g>
   <g id="matplotlib.axis_2">
    <g id="ytick_1">
     <g id="line2d_7">
      <path d="M 47.64 252.548182 
L 529.2 252.548182 
" clip-path="url(#pb4ab39f56e)" style="fill: none; stroke-dasharray: 2.22,0.96; stroke-dashoffset: 0; stroke: #b0b0b0; stroke-opacity: 0.7; stroke-width: 0.6"/>
     </g>
     <g id="line2d_8">
      <defs>
       <path id="m532479f1ff" d="M 0 0 
L 3.5 0 
" style="stroke: #1a1a1a; stroke-width: 0.8"/>
      </defs>
      <g>
       <use xlink:href="#m532479f1ff" x="47.64" y="252.548182" style="fill: #1a1a1a; stroke: #1a1a1a; stroke-width: 0.8"/>
      </g>
     </g>
     <g id="text_4">
      <!-- 0.0 -->
      <g style="fill: #1a1a1a" transform="translate(26.646563 256.727322) scale(0.11 -0.11)">
       <defs>
        <path id="DejaVuSans-30" d="M 2034 4250 
Q 1547 4250 1301 3770 
Q 1056 3291 1056 2328 
Q 1056 1369 1301 889 
Q 1547 409 2034 409 
Q 2525 409 2770 889 
Q 3016 1369 3016 2328 
Q 3016 3291 2770 3770 
Q 2525 4250 2034 4250 
z
M 2034 4750 
Q 2819 4750 3233 4129 
Q 3647 3509 3647 2328 
Q 3647 1150 3233 529 
Q 2819 -91 2034 -91 
Q 1250 -91 836 529 
Q 422 1150 422 2328 
Q 422 3509 836 4129 
Q 1250 4750 2034 4750 
z
" transform="scale(0.015625)"/>
        <path id="DejaVuSans-2e" d="M 684 794 
L 1344 794 
L 1344 0 
L 684 0 
L 684 794 
z
" transform="scale(0.015625)"/>
       </defs>
       <use xlink:href="#DejaVuSans-30"/>
       <use xlink:href="#DejaVuSans-2e" x="63.623047"/>
       <use xlink:href="#DejaVuSans-30" x="95.410156"/>
      </g>
     </g>
    </g>
    <g id="ytick_2">
     <g id="line2d_9">
      <path d="M 47.64 206.226806 
L 529.2 206.226806 
" clip-path="url(#pb4ab39f56e)" style="fill: none; stroke-dasharray: 2.22,0.96; stroke-dashoffset: 0; stroke: #b0b0b0; stroke-opacity: 0.7; stroke-width: 0.6"/>
     </g>
     <g id="line2d_10">
      <g>
       <use xlink:href="#m532479f1ff" x="47.64" y="206.226806" style="fill: #1a1a1a; stroke: #1a1a1a; stroke-width: 0.8"/>
      </g>
     </g>
     <g id="text_5">
      <!-- 0.2 -->
      <g style="fill: #1a1a1a" transform="translate(26.646563 210.405947) scale(0.11 -0.11)">
       <defs>
        <path id="DejaVuSans-32" d="M 1228 531 
L 3431 531 
L 3431 0 
L 469 0 
L 469 531 
Q 828 903 1448 1529 
Q 2069 2156 2228 2338 
Q 2531 2678 2651 2914 
Q 2772 3150 2772 3378 
Q 2772 3750 2511 3984 
Q 2250 4219 1831 4219 
Q 1534 4219 1204 4116 
Q 875 4013 500 3803 
L 500 4441 
Q 881 4594 1212 4672 
Q 1544 4750 1819 4750 
Q 2544 4750 2975 4387 
Q 3406 4025 3406 3419 
Q 3406 3131 3298 2873 
Q 3191 2616 2906 2266 
Q 2828 2175 2409 1742 
Q 1991 1309 1228 531 
z
" transform="scale(0.015625)"/>
       </defs>
       <use xlink:href="#DejaVuSans-30"/>
       <use xlink:href="#DejaVuSans-2e" x="63.623047"/>
       <use xlink:href="#DejaVuSans-32" x="95.410156"/>
      </g>
     </g>
    </g>
    <g id="ytick_3">
     <g id="line2d_11">
      <path d="M 47.64 159.90543 
L 529.2 159.90543 
" clip-path="url(#pb4ab39f56e)" style="fill: none; stroke-dasharray: 2.22,0.96; stroke-dashoffset: 0; stroke: #b0b0b0; stroke-opacity: 0.7; stroke-width: 0.6"/>
     </g>
     <g id="line2d_12">
      <g>
       <use xlink:href="#m532479f1ff" x="47.64" y="159.90543" style="fill: #1a1a1a; stroke: #1a1a1a; stroke-width: 0.8"/>
      </g>
     </g>
     <g id="text_6">
      <!-- 0.4 -->
      <g style="fill: #1a1a1a" transform="translate(26.646563 164.084571) scale(0.11 -0.11)">
       <defs>
        <path id="DejaVuSans-34" d="M 2419 4116 
L 825 1625 
L 2419 1625 
L 2419 4116 
z
M 2253 4666 
L 3047 4666 
L 3047 1625 
L 3713 1625 
L 3713 1100 
L 3047 1100 
L 3047 0 
L 2419 0 
L 2419 1100 
L 313 1100 
L 313 1709 
L 2253 4666 
z
" transform="scale(0.015625)"/>
       </defs>
       <use xlink:href="#DejaVuSans-30"/>
       <use xlink:href="#DejaVuSans-2e" x="63.623047"/>
       <use xlink:href="#DejaVuSans-34" x="95.410156"/>
      </g>
     </g>
    </g>
    <g id="ytick_4">
     <g id="line2d_13">
      <path d="M 47.64 113.584054 
L 529.2 113.584054 
" clip-path="url(#pb4ab39f56e)" style="fill: none; stroke-dasharray: 2.22,0.96; stroke-dashoffset: 0; stroke: #b0b0b0; stroke-opacity: 0.7; stroke-width: 0.6"/>
     </g>
     <g id="line2d_14">
      <g>
       <use xlink:href="#m532479f1ff" x="47.64" y="113.584054" style="fill: #1a1a1a; stroke: #1a1a1a; stroke-width: 0.8"/>
      </g>
     </g>
     <g id="text_7">
      <!-- 0.6 -->
      <g style="fill: #1a1a1a" transform="translate(26.646563 117.763195) scale(0.11 -0.11)">
       <defs>
        <path id="DejaVuSans-36" d="M 2113 2584 
Q 1688 2584 1439 2293 
Q 1191 2003 1191 1497 
Q 1191 994 1439 701 
Q 1688 409 2113 409 
Q 2538 409 2786 701 
Q 3034 994 3034 1497 
Q 3034 2003 2786 2293 
Q 2538 2584 2113 2584 
z
M 3366 4563 
L 3366 3988 
Q 3128 4100 2886 4159 
Q 2644 4219 2406 4219 
Q 1781 4219 1451 3797 
Q 1122 3375 1075 2522 
Q 1259 2794 1537 2939 
Q 1816 3084 2150 3084 
Q 2853 3084 3261 2657 
Q 3669 2231 3669 1497 
Q 3669 778 3244 343 
Q 2819 -91 2113 -91 
Q 1303 -91 875 529 
Q 447 1150 447 2328 
Q 447 3434 972 4092 
Q 1497 4750 2381 4750 
Q 2619 4750 2861 4703 
Q 3103 4656 3366 4563 
z
" transform="scale(0.015625)"/>
       </defs>
       <use xlink:href="#DejaVuSans-30"/>
       <use xlink:href="#DejaVuSans-2e" x="63.623047"/>
       <use xlink:href="#DejaVuSans-36" x="95.410156"/>
      </g>
     </g>
    </g>
    <g id="ytick_5">
     <g id="line2d_15">
      <path d="M 47.64 67.262678 
L 529.2 67.262678 
" clip-path="url(#pb4ab39f56e)" style="fill: none; stroke-dasharray: 2.22,0.96; stroke-dashoffset: 0; stroke: #b0b0b0; stroke-opacity: 0.7; stroke-width: 0.6"/>
     </g>
     <g id="line2d_16">
      <g>
       <use xlink:href="#m532479f1ff" x="47.64" y="67.262678" style="fill: #1a1a1a; stroke: #1a1a1a; stroke-width: 0.8"/>
      </g>
     </g>
     <g id="text_8">
      <!-- 0.8 -->
      <g style="fill: #1a1a1a" transform="translate(26.646563 71.441819) scale(0.11 -0.11)">
       <defs>
        <path id="DejaVuSans-38" d="M 2034 2216 
Q 1584 2216 1326 1975 
Q 1069 1734 1069 1313 
Q 1069 891 1326 650 
Q 1584 409 2034 409 
Q 2484 409 2743 651 
Q 3003 894 3003 1313 
Q 3003 1734 2745 1975 
Q 2488 2216 2034 2216 
z
M 1403 2484 
Q 997 2584 770 2862 
Q 544 3141 544 3541 
Q 544 4100 942 4425 
Q 1341 4750 2034 4750 
Q 2731 4750 3128 4425 
Q 3525 4100 3525 3541 
Q 3525 3141 3298 2862 
Q 3072 2584 2669 2484 
Q 3125 2378 3379 2068 
Q 3634 1759 3634 1313 
Q 3634 634 3220 271 
Q 2806 -91 2034 -91 
Q 1263 -91 848 271 
Q 434 634 434 1313 
Q 434 1759 690 2068 
Q 947 2378 1403 2484 
z
M 1172 3481 
Q 1172 3119 1398 2916 
Q 1625 2713 2034 2713 
Q 2441 2713 2670 2916 
Q 2900 3119 2900 3481 
Q 2900 3844 2670 4047 
Q 2441 4250 2034 4250 
Q 1625 4250 1398 4047 
Q 1172 3844 1172 3481 
z
" transform="scale(0.015625)"/>
       </defs>
       <use xlink:href="#DejaVuSans-30"/>
       <use xlink:href="#DejaVuSans-2e" x="63.623047"/>
       <use xlink:href="#DejaVuSans-38" x="95.410156"/>
      </g>
     </g>
    </g>
    <g id="text_9">
     <!-- Win Rate vs CFR -->
     <g style="fill: #1a1a1a" transform="translate(20.150938 194.659063) rotate(-90) scale(0.12 -0.12)">
      <defs>
       <path id="DejaVuSans-57" d="M 213 4666 
L 850 4666 
L 1831 722 
L 2809 4666 
L 3519 4666 
L 4500 722 
L 5478 4666 
L 6119 4666 
L 4947 0 
L 4153 0 
L 3169 4050 
L 2175 0 
L 1381 0 
L 213 4666 
z
" transform="scale(0.015625)"/>
       <path id="DejaVuSans-6e" d="M 3513 2113 
L 3513 0 
L 2938 0 
L 2938 2094 
Q 2938 2591 2744 2837 
Q 2550 3084 2163 3084 
Q 1697 3084 1428 2787 
Q 1159 2491 1159 1978 
L 1159 0 
L 581 0 
L 581 3500 
L 1159 3500 
L 1159 2956 
Q 1366 3272 1645 3428 
Q 1925 3584 2291 3584 
Q 2894 3584 3203 3211 
Q 3513 2838 3513 2113 
z
" transform="scale(0.015625)"/>
       <path id="DejaVuSans-20" transform="scale(0.015625)"/>
       <path id="DejaVuSans-76" d="M 191 3500 
L 800 3500 
L 1894 563 
L 2988 3500 
L 3597 3500 
L 2284 0 
L 1503 0 
L 191 3500 
z
" transform="scale(0.015625)"/>
       <path id="DejaVuSans-73" d="M 2834 3397 
L 2834 2853 
Q 2591 2978 2328 3040 
Q 2066 3103 1784 3103 
Q 1356 3103 1142 2972 
Q 928 2841 928 2578 
Q 928 2378 1081 2264 
Q 1234 2150 1697 2047 
L 1894 2003 
Q 2506 1872 2764 1633 
Q 3022 1394 3022 966 
Q 3022 478 2636 193 
Q 2250 -91 1575 -91 
Q 1294 -91 989 -36 
Q 684 19 347 128 
L 347 722 
Q 666 556 975 473 
Q 1284 391 1588 391 
Q 1994 391 2212 530 
Q 2431 669 2431 922 
Q 2431 1156 2273 1281 
Q 2116 1406 1581 1522 
L 1381 1569 
Q 847 1681 609 1914 
Q 372 2147 372 2553 
Q 372 3047 722 3315 
Q 1072 3584 1716 3584 
Q 2034 3584 2315 3537 
Q 2597 3491 2834 3397 
z
" transform="scale(0.015625)"/>
      </defs>
      <use xlink:href="#DejaVuSans-57"/>
      <use xlink:href="#DejaVuSans-69" x="96.626953"/>
      <use xlink:href="#DejaVuSans-6e" x="124.410156"/>
      <use xlink:href="#DejaVuSans-20" x="187.789062"/>
      <use xlink:href="#DejaVuSans-52" x="219.576172"/>
      <use xlink:href="#DejaVuSans-61" x="286.808594"/>
      <use xlink:href="#DejaVuSans-74" x="348.087891"/>
      <use xlink:href="#DejaVuSans-65" x="387.296875"/>
      <use xlink:href="#DejaVuSans-20" x="448.820312"/>
      <use xlink:href="#DejaVuSans-76" x="480.607422"/>
      <use xlink:href="#DejaVuSans-73" x="539.787109"/>
      <use xlink:href="#DejaVuSans-20" x="591.886719"/>
      <use xlink:href="#DejaVuSans-43" x="623.673828"/>
      <use xlink:href="#DejaVuSans-46" x="693.498047"/>
      <use xlink:href="#DejaVuSans-52" x="751.017578"/>
     </g>
    </g>
   </g>
   <g id="patch_3">
    <path d="M 102.362727 142.534914 
L 138.844545 142.534914 
L 138.844545 113.584054 
L 102.362727 113.584054 
L 102.362727 142.534914 
z
" clip-path="url(#pb4ab39f56e)" style="fill: #e69f00; opacity: 0.7; stroke: #000000; stroke-linejoin: miter"/>
   </g>
   <g id="line2d_17">
    <path d="M 120.603636 142.534914 
L 120.603636 177.275946 
" clip-path="url(#pb4ab39f56e)" style="fill: none; stroke: #000000; stroke-linecap: square"/>
   </g>
   <g id="line2d_18">
    <path d="M 120.603636 113.584054 
L 120.603636 78.843022 
" clip-path="url(#pb4ab39f56e)" style="fill: none; stroke: #000000; stroke-linecap: square"/>
   </g>
   <g id="line2d_19">
    <path d="M 111.483182 177.275946 
L 129.724091 177.275946 
" clip-path="url(#pb4ab39f56e)" style="fill: none; stroke: #000000; stroke-linecap: square"/>
   </g>
   <g id="line2d_20">
    <path d="M 111.483182 78.843022 
L 129.724091 78.843022 
" clip-path="url(#pb4ab39f56e)" style="fill: none; stroke: #000000; stroke-linecap: square"/>
   </g>
   <g id="line2d_21"/>
   <g id="patch_4">
    <path d="M 146.140909 240.967838 
L 182.622727 240.967838 
L 182.622727 223.597322 
L 146.140909 223.597322 
L 146.140909 240.967838 
z
" clip-path="url(#pb4ab39f56e)" style="fill: #56b4e9; opacity: 0.7; stroke: #000000; stroke-linejoin: miter"/>
   </g>
   <g id="line2d_22">
    <path d="M 164.381818 240.967838 
L 164.381818 252.548182 
" clip-path="url(#pb4ab39f56e)" style="fill: none; stroke: #000000; stroke-linecap: square"/>
   </g>
   <g id="line2d_23">
    <path d="M 164.381818 223.597322 
L 164.381818 206.226806 
" clip-path="url(#pb4ab39f56e)" style="fill: none; stroke: #000000; stroke-linecap: square"/>
   </g>
   <g id="line2d_24">
    <path d="M 155.261364 252.548182 
L 173.502273 252.548182 
" clip-path="url(#pb4ab39f56e)" style="fill: none; stroke: #000000; stroke-linecap: square"/>
   </g>
   <g id="line2d_25">
    <path d="M 155.261364 206.226806 
L 173.502273 206.226806 
" clip-path="url(#pb4ab39f56e)" style="fill: none; stroke: #000000; stroke-linecap: square"/>
   </g>
   <g id="line2d_26"/>
   <g id="patch_5">
    <path d="M 248.29 119.374226 
L 284.771818 119.374226 
L 284.771818 90.423366 
L 248.29 90.423366 
L 248.29 119.374226 
z
" clip-path="url(#pb4ab39f56e)" style="fill: #e69f00; opacity: 0.7; stroke: #000000; stroke-linejoin: miter"/>
   </g>
   <g id="line2d_27">
    <path d="M 266.530909 119.374226 
L 266.530909 154.115258 
" clip-path="url(#pb4ab39f56e)" style="fill: none; stroke: #000000; stroke-linecap: square"/>
   </g>
   <g id="line2d_28">
    <path d="M 266.530909 90.423366 
L 266.530909 55.682334 
" clip-path="url(#pb4ab39f56e)" style="fill: none; stroke: #000000; stroke-linecap: square"/>
   </g>
   <g id="line2d_29">
    <path d="M 257.410455 154.115258 
L 275.651364 154.115258 
" clip-path="url(#pb4ab39f56e)" style="fill: none; stroke: #000000; stroke-linecap: square"/>
   </g>
   <g id="line2d_30">
    <path d="M 257.410455 55.682334 
L 275.651364 55.682334 
" clip-path="url(#pb4ab39f56e)" style="fill: none; stroke: #000000; stroke-linecap: square"/>
   </g>
   <g id="line2d_31">
    <defs>
     <path id="m0ed8c4a5ca" d="M 0 3 
C 0.795609 3 1.55874 2.683901 2.12132 2.12132 
C 2.683901 1.55874 3 0.795609 3 0 
C 3 -0.795609 2.683901 -1.55874 2.12132 -2.12132 
C 1.55874 -2.683901 0.795609 -3 0 -3 
C -0.795609 -3 -1.55874 -2.683901 -2.12132 -2.12132 
C -2.683901 -1.55874 -3 -0.795609 -3 0 
C -3 0.795609 -2.683901 1.55874 -2.12132 2.12132 
C -1.55874 2.683901 -0.795609 3 0 3 
z
" style="stroke: #000000"/>
    </defs>
    <g clip-path="url(#pb4ab39f56e)">
     <use xlink:href="#m0ed8c4a5ca" x="266.530909" y="38.311818" style="fill-opacity: 0; stroke: #000000"/>
    </g>
   </g>
   <g id="patch_6">
    <path d="M 292.068182 183.066118 
L 328.55 183.066118 
L 328.55 148.325086 
L 292.068182 148.325086 
L 292.068182 183.066118 
z
" clip-path="url(#pb4ab39f56e)" style="fill: #56b4e9; opacity: 0.7; stroke: #000000; stroke-linejoin: miter"/>
   </g>
   <g id="line2d_32">
    <path d="M 310.309091 183.066118 
L 310.309091 206.226806 
" clip-path="url(#pb4ab39f56e)" style="fill: none; stroke: #000000; stroke-linecap: square"/>
   </g>
   <g id="line2d_33">
    <path d="M 310.309091 148.325086 
L 310.309091 107.793882 
" clip-path="url(#pb4ab39f56e)" style="fill: none; stroke: #000000; stroke-linecap: square"/>
   </g>
   <g id="line2d_34">
    <path d="M 301.188636 206.226806 
L 319.429545 206.226806 
" clip-path="url(#pb4ab39f56e)" style="fill: none; stroke: #000000; stroke-linecap: square"/>
   </g>
   <g id="line2d_35">
    <path d="M 301.188636 107.793882 
L 319.429545 107.793882 
" clip-path="url(#pb4ab39f56e)" style="fill: none; stroke: #000000; stroke-linecap: square"/>
   </g>
   <g id="line2d_36"/>
   <g id="patch_7">
    <path d="M 394.217273 148.325086 
L 430.699091 148.325086 
L 430.699091 107.793882 
L 394.217273 107.793882 
L 394.217273 148.325086 
z
" clip-path="url(#pb4ab39f56e)" style="fill: #e69f00; opacity: 0.7; stroke: #000000; stroke-linejoin: miter"/>
   </g>
   <g id="line2d_37">
    <path d="M 412.458182 148.325086 
L 412.458182 177.275946 
" clip-path="url(#pb4ab39f56e)" style="fill: none; stroke: #000000; stroke-linecap: square"/>
   </g>
   <g id="line2d_38">
    <path d="M 412.458182 107.793882 
L 412.458182 90.423366 
" clip-path="url(#pb4ab39f56e)" style="fill: none; stroke: #000000; stroke-linecap: square"/>
   </g>
   <g id="line2d_39">
    <path d="M 403.337727 177.275946 
L 421.578636 177.275946 
" clip-path="url(#pb4ab39f56e)" style="fill: none; stroke: #000000; stroke-linecap: square"/>
   </g>
   <g id="line2d_40">
    <path d="M 403.337727 90.423366 
L 421.578636 90.423366 
" clip-path="url(#pb4ab39f56e)" style="fill: none; stroke: #000000; stroke-linecap: square"/>
   </g>
   <g id="line2d_41"/>
   <g id="patch_8">
    <path d="M 437.995455 154.115258 
L 474.477273 154.115258 
L 474.477273 125.164398 
L 437.995455 125.164398 
L 437.995455 154.115258 
z
" clip-path="url(#pb4ab39f56e)" style="fill: #56b4e9; opacity: 0.7; stroke: #000000; stroke-linejoin: miter"/>
   </g>
   <g id="line2d_42">
    <path d="M 456.236364 154.115258 
L 456.236364 183.066118 
" clip-path="url(#pb4ab39f56e)" style="fill: none; stroke: #000000; stroke-linecap: square"/>
   </g>
   <g id="line2d_43">
    <path d="M 456.236364 125.164398 
L 456.236364 90.423366 
" clip-path="url(#pb4ab39f56e)" style="fill: none; stroke: #000000; stroke-linecap: square"/>
   </g>
   <g id="line2d_44">
    <path d="M 447.115909 183.066118 
L 465.356818 183.066118 
" clip-path="url(#pb4ab39f56e)" style="fill: none; stroke: #000000; stroke-linecap: square"/>
   </g>
   <g id="line2d_45">
    <path d="M 447.115909 90.423366 
L 465.356818 90.423366 
" clip-path="url(#pb4ab39f56e)" style="fill: none; stroke: #000000; stroke-linecap: square"/>
   </g>
   <g id="line2d_46">
    <g clip-path="url(#pb4ab39f56e)">
     <use xlink:href="#m0ed8c4a5ca" x="456.236364" y="212.016978" style="fill-opacity: 0; stroke: #000000"/>
     <use xlink:href="#m0ed8c4a5ca" x="456.236364" y="67.262678" style="fill-opacity: 0; stroke: #000000"/>
    </g>
   </g>
   <g id="line2d_47">
    <path d="M 102.362727 125.164398 
L 138.844545 125.164398 
" clip-path="url(#pb4ab39f56e)" style="fill: none; stroke: #56b4e9; stroke-linecap: square"/>
   </g>
   <g id="line2d_48">
    <defs>
     <path id="mebe63e5c42" d="M 0 2 
C 0.530406 2 1.03916 1.789267 1.414214 1.414214 
C 1.789267 1.03916 2 0.530406 2 0 
C 2 -0.530406 1.789267 -1.03916 1.414214 -1.414214 
C 1.03916 -1.789267 0.530406 -2 0 -2 
C -0.530406 -2 -1.03916 -1.789267 -1.414214 -1.414214 
C -1.789267 -1.03916 -2 -0.530406 -2 0 
C -2 0.530406 -1.789267 1.03916 -1.414214 1.414214 
C -1.03916 1.789267 -0.530406 2 0 2 
z
"/>
    </defs>
    <g clip-path="url(#pb4ab39f56e)">
     <use xlink:href="#mebe63e5c42" x="120.603636" y="126.576635"/>
    </g>
   </g>
   <g id="line2d_49">
    <path d="M 146.140909 235.177666 
L 182.622727 235.177666 
" clip-path="url(#pb4ab39f56e)" style="fill: none; stroke: #56b4e9; stroke-linecap: square"/>
   </g>
   <g id="line2d_50">
    <g clip-path="url(#pb4ab39f56e)">
     <use xlink:href="#mebe63e5c42" x="164.381818" y="232.211968"/>
    </g>
   </g>
   <g id="line2d_51">
    <path d="M 248.29 107.793882 
L 284.771818 107.793882 
" clip-path="url(#pb4ab39f56e)" style="fill: none; stroke: #56b4e9; stroke-linecap: square"/>
   </g>
   <g id="line2d_52">
    <g clip-path="url(#pb4ab39f56e)">
     <use xlink:href="#mebe63e5c42" x="266.530909" y="107.793882"/>
    </g>
   </g>
   <g id="line2d_53">
    <path d="M 292.068182 165.695602 
L 328.55 165.695602 
" clip-path="url(#pb4ab39f56e)" style="fill: none; stroke: #56b4e9; stroke-linecap: square"/>
   </g>
   <g id="line2d_54">
    <g clip-path="url(#pb4ab39f56e)">
     <use xlink:href="#mebe63e5c42" x="310.309091" y="164.000917"/>
    </g>
   </g>
   <g id="line2d_55">
    <path d="M 394.217273 119.374226 
L 430.699091 119.374226 
" clip-path="url(#pb4ab39f56e)" style="fill: none; stroke: #56b4e9; stroke-linecap: square"/>
   </g>
   <g id="line2d_56">
    <g clip-path="url(#pb4ab39f56e)">
     <use xlink:href="#mebe63e5c42" x="412.458182" y="128.694991"/>
    </g>
   </g>
   <g id="line2d_57">
    <path d="M 437.995455 136.744742 
L 474.477273 136.744742 
" clip-path="url(#pb4ab39f56e)" style="fill: none; stroke: #56b4e9; stroke-linecap: square"/>
   </g>
   <g id="line2d_58">
    <g clip-path="url(#pb4ab39f56e)">
     <use xlink:href="#mebe63e5c42" x="456.236364" y="138.015755"/>
    </g>
   </g>
   <g id="patch_9">
    <path d="M 47.64 263.26 
L 47.64 27.6 
" style="fill: none; stroke: #1a1a1a; stroke-linejoin: miter; stroke-linecap: square"/>
   </g>
   <g id="patch_10">
    <path d="M 47.64 263.26 
L 529.2 263.26 
" style="fill: none; stroke: #1a1a1a; stroke-linejoin: miter; stroke-linecap: square"/>
   </g>
   <g id="text_10">
    <!-- Model Win Rates vs CFR (last 10k steps) -->
    <g style="fill: #333333" transform="translate(147.585469 21.6) scale(0.14 -0.14)">
     <defs>
      <path id="DejaVuSans-4d" d="M 628 4666 
L 1569 4666 
L 2759 1491 
L 3956 4666 
L 4897 4666 
L 4897 0 
L 4281 0 
L 4281 4097 
L 3078 897 
L 2444 897 
L 1241 4097 
L 1241 0 
L 628 0 
L 628 4666 
z
" transform="scale(0.015625)"/>
      <path id="DejaVuSans-64" d="M 2906 2969 
L 2906 4863 
L 3481 4863 
L 3481 0 
L 2906 0 
L 2906 525 
Q 2725 213 2448 61 
Q 2172 -91 1784 -91 
Q 1150 -91 751 415 
Q 353 922 353 1747 
Q 353 2572 751 3078 
Q 1150 3584 1784 3584 
Q 2172 3584 2448 3432 
Q 2725 3281 2906 2969 
z
M 947 1747 
Q 947 1113 1208 752 
Q 1469 391 1925 391 
Q 2381 391 2643 752 
Q 2906 1113 2906 1747 
Q 2906 2381 2643 2742 
Q 2381 3103 1925 3103 
Q 1469 3103 1208 2742 
Q 947 2381 947 1747 
z
" transform="scale(0.015625)"/>
      <path id="DejaVuSans-28" d="M 1984 4856 
Q 1566 4138 1362 3434 
Q 1159 2731 1159 2009 
Q 1159 1288 1364 580 
Q 1569 -128 1984 -844 
L 1484 -844 
Q 1016 -109 783 600 
Q 550 1309 550 2009 
Q 550 2706 781 3412 
Q 1013 4119 1484 4856 
L 1984 4856 
z
" transform="scale(0.015625)"/>
      <path id="DejaVuSans-31" d="M 794 531 
L 1825 531 
L 1825 4091 
L 703 3866 
L 703 4441 
L 1819 4666 
L 2450 4666 
L 2450 531 
L 3481 531 
L 3481 0 
L 794 0 
L 794 531 
z
" transform="scale(0.015625)"/>
      <path id="DejaVuSans-6b" d="M 581 4863 
L 1159 4863 
L 1159 1991 
L 2875 3500 
L 3609 3500 
L 1753 1863 
L 3688 0 
L 2938 0 
L 1159 1709 
L 1159 0 
L 581 0 
L 581 4863 
z
" transform="scale(0.015625)"/>
      <path id="DejaVuSans-70" d="M 1159 525 
L 1159 -1331 
L 581 -1331 
L 581 3500 
L 1159 3500 
L 1159 2969 
Q 1341 3281 1617 3432 
Q 1894 3584 2278 3584 
Q 2916 3584 3314 3078 
Q 3713 2572 3713 1747 
Q 3713 922 3314 415 
Q 2916 -91 2278 -91 
Q 1894 -91 1617 61 
Q 1341 213 1159 525 
z
M 3116 1747 
Q 3116 2381 2855 2742 
Q 2594 3103 2138 3103 
Q 1681 3103 1420 2742 
Q 1159 2381 1159 1747 
Q 1159 1113 1420 752 
Q 1681 391 2138 391 
Q 2594 391 2855 752 
Q 3116 1113 3116 1747 
z
" transform="scale(0.015625)"/>
      <path id="DejaVuSans-29" d="M 513 4856 
L 1013 4856 
Q 1481 4119 1714 3412 
Q 1947 2706 1947 2009 
Q 1947 1309 1714 600 
Q 1481 -109 1013 -844 
L 513 -844 
Q 928 -128 1133 580 
Q 1338 1288 1338 2009 
Q 1338 2731 1133 3434 
Q 928 4138 513 4856 
z
" transform="scale(0.015625)"/>
     </defs>
     <use xlink:href="#DejaVuSans-4d"/>
     <use xlink:href="#DejaVuSans-6f" x="86.279297"/>
     <use xlink:href="#DejaVuSans-64" x="147.460938"/>
     <use xlink:href="#DejaVuSans-65" x="210.9375"/>
     <use xlink:href="#DejaVuSans-6c" x="272.460938"/>
     <use xlink:href="#DejaVuSans-20" x="300.244141"/>
     <use xlink:href="#DejaVuSans-57" x="332.03125"/>
     <use xlink:href="#DejaVuSans-69" x="428.658203"/>
     <use xlink:href="#DejaVuSans-6e" x="456.441406"/>
     <use xlink:href="#DejaVuSans-20" x="519.820312"/>
     <use xlink:href="#DejaVuSans-52" x="551.607422"/>
     <use xlink:href="#DejaVuSans-61" x="618.839844"/>
     <use xlink:href="#DejaVuSans-74" x="680.119141"/>
     <use xlink:href="#DejaVuSans-65" x="719.328125"/>
     <use xlink:href="#DejaVuSans-73" x="780.851562"/>
     <use xlink:href="#DejaVuSans-20" x="832.951172"/>
     <use xlink:href="#DejaVuSans-76" x="864.738281"/>
     <use xlink:href="#DejaVuSans-73" x="923.917969"/>
     <use xlink:href="#DejaVuSans-20" x="976.017578"/>
     <use xlink:href="#DejaVuSans-43" x="1007.804688"/>
     <use xlink:href="#DejaVuSans-46" x="1077.628906"/>
     <use xlink:href="#DejaVuSans-52" x="1135.148438"/>
     <use xlink:href="#DejaVuSans-20" x="1204.630859"/>
     <use xlink:href="#DejaVuSans-28" x="1236.417969"/>
     <use xlink:href="#DejaVuSans-6c" x="1275.431641"/>
     <use xlink:href="#DejaVuSans-61" x="1303.214844"/>
     <use xlink:href="#DejaVuSans-73" x="1364.494141"/>
     <use xlink:href="#DejaVuSans-74" x="1416.59375"/>
     <use xlink:href="#DejaVuSans-20" x="1455.802734"/>
     <use xlink:href="#DejaVuSans-31" x="1487.589844"/>
     <use xlink:href="#DejaVuSans-30" x="1551.212891"/>
     <use xlink:href="#DejaVuSans-6b" x="1614.835938"/>
     <use xlink:href="#DejaVuSans-20" x="1672.746094"/>
     <use xlink:href="#DejaVuSans-73" x="1704.533203"/>
     <use xlink:href="#DejaVuSans-74" x="1756.632812"/>
     <use xlink:href="#DejaVuSans-65" x="1795.841797"/>
     <use xlink:href="#DejaVuSans-70" x="1857.365234"/>
     <use xlink:href="#DejaVuSans-73" x="1920.841797"/>
     <use xlink:href="#DejaVuSans-29" x="1972.941406"/>
    </g>
   </g>
   <g id="legend_1">
    <g id="patch_11">
     <path d="M 376.9 258.26 
L 522.2 258.26 
Q 524.2 258.26 524.2 256.26 
L 524.2 213.225625 
Q 524.2 211.225625 522.2 211.225625 
L 376.9 211.225625 
Q 374.9 211.225625 374.9 213.225625 
L 374.9 256.26 
Q 374.9 258.26 376.9 258.26 
z
" style="fill: #ffffff; opacity: 0.8; stroke: #cccccc; stroke-linejoin: miter"/>
    </g>
    <g id="text_11">
     <!-- Abstraction -->
     <g style="fill: #333333" transform="translate(420.944531 222.824062) scale(0.1 -0.1)">
      <use xlink:href="#DejaVuSans-41"/>
      <use xlink:href="#DejaVuSans-62" x="68.408203"/>
      <use xlink:href="#DejaVuSans-73" x="131.884766"/>
      <use xlink:href="#DejaVuSans-74" x="183.984375"/>
      <use xlink:href="#DejaVuSans-72" x="223.193359"/>
      <use xlink:href="#DejaVuSans-61" x="264.306641"/>
      <use xlink:href="#DejaVuSans-63" x="325.585938"/>
      <use xlink:href="#DejaVuSans-74" x="380.566406"/>
      <use xlink:href="#DejaVuSans-69" x="419.775391"/>
      <use xlink:href="#DejaVuSans-6f" x="447.558594"/>
      <use xlink:href="#DejaVuSans-6e" x="508.740234"/>
     </g>
    </g>
    <g id="patch_12">
     <path d="M 378.9 237.502187 
L 398.9 237.502187 
L 398.9 230.502187 
L 378.9 230.502187 
z
" style="fill: #e69f00; opacity: 0.7"/>
    </g>
    <g id="text_12">
     <!-- IntentStateAbstraction -->
     <g style="fill: #333333" transform="translate(406.9 237.502187) scale(0.1 -0.1)">
      <defs>
       <path id="DejaVuSans-53" d="M 3425 4513 
L 3425 3897 
Q 3066 4069 2747 4153 
Q 2428 4238 2131 4238 
Q 1616 4238 1336 4038 
Q 1056 3838 1056 3469 
Q 1056 3159 1242 3001 
Q 1428 2844 1947 2747 
L 2328 2669 
Q 3034 2534 3370 2195 
Q 3706 1856 3706 1288 
Q 3706 609 3251 259 
Q 2797 -91 1919 -91 
Q 1588 -91 1214 -16 
Q 841 59 441 206 
L 441 856 
Q 825 641 1194 531 
Q 1563 422 1919 422 
Q 2459 422 2753 634 
Q 3047 847 3047 1241 
Q 3047 1584 2836 1778 
Q 2625 1972 2144 2069 
L 1759 2144 
Q 1053 2284 737 2584 
Q 422 2884 422 3419 
Q 422 4038 858 4394 
Q 1294 4750 2059 4750 
Q 2388 4750 2728 4690 
Q 3069 4631 3425 4513 
z
" transform="scale(0.015625)"/>
      </defs>
      <use xlink:href="#DejaVuSans-49"/>
      <use xlink:href="#DejaVuSans-6e" x="29.492188"/>
      <use xlink:href="#DejaVuSans-74" x="92.871094"/>
      <use xlink:href="#DejaVuSans-65" x="132.080078"/>
      <use xlink:href="#DejaVuSans-6e" x="193.603516"/>
      <use xlink:href="#DejaVuSans-74" x="256.982422"/>
      <use xlink:href="#DejaVuSans-53" x="296.191406"/>
      <use xlink:href="#DejaVuSans-74" x="359.667969"/>
      <use xlink:href="#DejaVuSans-61" x="398.876953"/>
      <use xlink:href="#DejaVuSans-74" x="460.15625"/>
      <use xlink:href="#DejaVuSans-65" x="499.365234"/>
      <use xlink:href="#DejaVuSans-41" x="560.888672"/>
      <use xlink:href="#DejaVuSans-62" x="629.296875"/>
      <use xlink:href="#DejaVuSans-73" x="692.773438"/>
      <use xlink:href="#DejaVuSans-74" x="744.873047"/>
      <use xlink:href="#DejaVuSans-72" x="784.082031"/>
      <use xlink:href="#DejaVuSans-61" x="825.195312"/>
      <use xlink:href="#DejaVuSans-63" x="886.474609"/>
      <use xlink:href="#DejaVuSans-74" x="941.455078"/>
      <use xlink:href="#DejaVuSans-69" x="980.664062"/>
      <use xlink:href="#DejaVuSans-6f" x="1008.447266"/>
      <use xlink:href="#DejaVuSans-6e" x="1069.628906"/>
     </g>
    </g>
    <g id="patch_13">
     <path d="M 378.9 252.180313 
L 398.9 252.180313 
L 398.9 245.180313 
L 378.9 245.180313 
z
" style="fill: #56b4e9; opacity: 0.7"/>
    </g>
    <g id="text_13">
     <!-- FullStateAbstraction -->
     <g style="fill: #333333" transform="translate(406.9 252.180313) scale(0.1 -0.1)">
      <use xlink:href="#DejaVuSans-46"/>
      <use xlink:href="#DejaVuSans-75" x="52.019531"/>
      <use xlink:href="#DejaVuSans-6c" x="115.398438"/>
      <use xlink:href="#DejaVuSans-6c" x="143.181641"/>
      <use xlink:href="#DejaVuSans-53" x="170.964844"/>
      <use xlink:href="#DejaVuSans-74" x="234.441406"/>
      <use xlink:href="#DejaVuSans-61" x="273.650391"/>
      <use xlink:href="#DejaVuSans-74" x="334.929688"/>
      <use xlink:href="#DejaVuSans-65" x="374.138672"/>
      <use xlink:href="#DejaVuSans-41" x="435.662109"/>
      <use xlink:href="#DejaVuSans-62" x="504.070312"/>
      <use xlink:href="#DejaVuSans-73" x="567.546875"/>
      <use xlink:href="#DejaVuSans-74" x="619.646484"/>
      <use xlink:href="#DejaVuSans-72" x="658.855469"/>
      <use xlink:href="#DejaVuSans-61" x="699.96875"/>
      <use xlink:href="#DejaVuSans-63" x="761.248047"/>
      <use xlink:href="#DejaVuSans-74" x="816.228516"/>
      <use xlink:href="#DejaVuSans-69" x="855.4375"/>
      <use xlink:href="#DejaVuSans-6f" x="883.220703"/>
      <use xlink:href="#DejaVuSans-6e" x="944.402344"/>
     </g>
    </g>
   </g>
  </g>
 </g>
 <defs>
  <clipPath id="pb4ab39f56e">
   <rect x="47.64" y="27.6" width="481.56" height="235.66"/>
  </clipPath>
 </defs>
</svg>
